# xmcd CD database file
#
# Track frame offsets:
#	150
#	18275
#	31204
#	62446
#	80909
#	93689
#	123572
#	136952
#	155153
#	187371
#	206003
#	224107
#	242733
#	260362
#	277133
#	295330
#
# Disc length: 4459 seconds
#
# Revision: 3
# Processed by: cddbd v1.5.2PL0 Copyright (c) Steve Scherf et al.
# Submitted via: CDex 1.70beta2
#
DISCID=06116910
DTITLE=Best Jazz 100 Piano Standards Disc.3 - シネマ・スタンダーズ
DYEAR=2006
DGENRE=Jazz
TTITLE0=クール - ビル・チャーラップ
TTITLE1=君住む街で - ジョージ・シアリング 
TTITLE2=時の過ぎるまま - ビル・エヴァンス
TTITLE3=シャレード - ザ・スリー・サウンズ 
TTITLE4=サムワン・トゥ・ウォッチ・オーヴァー・ミー - アート･テイタム 
TTITLE5=黒いオルフェ - イリアーヌ 
TTITLE6=虹の彼方に - バド・パウエル 
TTITLE7=シング・シング・シング - 松永貴志 
TTITLE8=いそしぎ - ロン・カーター feat.スティーヴン・スコット
TTITLE9=恋に落ちた時 - マッコイ・タイナー
TTITLE10=いつか王子様が - ハンク・ジョーンズ 
TTITLE11=アルフィーのテーマ - ベニー・グリーン
TTITLE12=栄光への脱出 - ドン・スカレッタ
TTITLE13=トゥナイト - トミー・フラナガン 
TTITLE14=酒とバラの日々 - ヒュー･ロウソン 
TTITLE15=ラウンド・ミッドナイト - ミシェル・ペトルチアーニ 
EXTD=YEAR: 2006
EXTT0=
EXTT1=
EXTT2=
EXTT3=
EXTT4=
EXTT5=
EXTT6=
EXTT7=
EXTT8=
EXTT9=
EXTT10=
EXTT11=
EXTT12=
EXTT13=
EXTT14=
EXTT15=
PLAYORDER=
